%
M48
M72
T01C0.01500
T02C0.03150
T03C0.03600
T04C0.04000
T05C0.07874
T06C0.12598
%
T01
X100492Y118757
X172242Y61007
X188867Y56632
X243117Y82882
X256242Y69757
X266742Y65382
X297367Y145882
X277242Y187882
X255367Y187882
X250992Y172132
X158242Y272757
X153867Y300757
X140742Y300757
X109242Y263132
X77742Y201882
X95242Y196632
X99617Y187007
X197617Y275382
X215992Y275382
X375242Y90757
T02
X162222Y167886
X162222Y177886
X162222Y187886
X162222Y197886
X162222Y207886
X162222Y217886
X291422Y310717
X301422Y310717
X311422Y310717
X321422Y310717
X331422Y310717
X341422Y310717
X351422Y310717
X361422Y310717
T03
X174852Y292946
X164852Y292946
T04
X162667Y257307
X172667Y257307
X182667Y257307
X182667Y247307
X172667Y247307
X162667Y247307
X152667Y247307
X142667Y247307
X142667Y257307
X152667Y257307
X132667Y257307
X132667Y247307
X116967Y202207
X116967Y192207
X116967Y182207
X116967Y172207
X116967Y162207
X116967Y152207
X116967Y142207
X116967Y132207
X132667Y87307
X132667Y77307
X142667Y77307
X152667Y77307
X162667Y77307
X172667Y77307
X182667Y77307
X192667Y77307
X202667Y77307
X212667Y77307
X222667Y77307
X222667Y87307
X212667Y87307
X202667Y87307
X192667Y87307
X182667Y87307
X172667Y87307
X162667Y87307
X152667Y87307
X142667Y87307
X31467Y91707
X31467Y101707
X31467Y111707
X192667Y247307
X202667Y247307
X212667Y247307
X222667Y247307
X222667Y257307
X212667Y257307
X202667Y257307
X192667Y257307
X297472Y237145
X297472Y217460
X297472Y197951
X297472Y178266
X297472Y158526
X297472Y138841
X297472Y116072
X297472Y96387
X325031Y96387
X325031Y116072
X325031Y138841
X325031Y158526
X325031Y178266
X325031Y197951
X325031Y217460
X325031Y237145
X355490Y237391
X355490Y217706
X355690Y197951
X355690Y178266
X355890Y158526
X355890Y138841
X356190Y116072
X356190Y96387
X383749Y96387
X383749Y116072
X383449Y138841
X383449Y158526
X383249Y178266
X383249Y197951
X383049Y217706
X383049Y237391
X367289Y64688
X367289Y54688
X367289Y44688
X367289Y34688
X367289Y24688
X367289Y14688
T05
X170096Y153902
X170096Y232670
X20437Y232670
X20437Y153902
T06
X28040Y16918
X116967Y88267
X270525Y88267
X391819Y16918
X270525Y246148
X296422Y264654
X356422Y264654
X391819Y317342
X116967Y246148
X28040Y317342
M30
