M48
;GenerationSoftware,Autodesk,EAGLE,8.7.0*%
;CreationDate,2018-04-01T16:58:44Z*%
FMAT,2
ICI,OFF
METRIC,TZ,000.000
T6C0.381
T5C0.800
T4C0.914
T3C1.016
T2C2.000
T1C3.200
%
G90
M71
T1
X96000Y82000
X26187Y23815
X26187Y63917
X65191Y63917
X65191Y23815
X3600Y82000
X3600Y5692
X96000Y5692
X71769Y68617
X87009Y68617
T2
X1669Y40486
X39682Y60493
X39682Y40486
X1669Y60493
T3
X42875Y21031
X45415Y21031
X45415Y23571
X47955Y23571
X47955Y21031
X50495Y21031
X50495Y23571
X53035Y21031
X53035Y23571
X30175Y23571
X30175Y21031
X4470Y29769
X4470Y27229
X4470Y24689
X89769Y5126
X89769Y7666
X72036Y51675
X89769Y10206
X89769Y12746
X89769Y15286
X89769Y17826
X72036Y30877
X26187Y34976
X26187Y37516
X26187Y40056
X26187Y42596
X26187Y45136
X26187Y47676
X26187Y50216
X26187Y52756
X72036Y61630
X72036Y56630
X79036Y61630
X79036Y56630
X72036Y25877
X79036Y30877
X72036Y41661
X72036Y36661
X79036Y41661
X79036Y36661
X86772Y61692
X86772Y56692
X93772Y61692
X93772Y56692
X86823Y51675
X86823Y46675
X93823Y51675
X93823Y46675
X86874Y41661
X86874Y36661
X93874Y41661
X93874Y36661
X86950Y30877
X86950Y25877
X93950Y30877
X93950Y25877
X79036Y25877
X72036Y46675
X79036Y51675
X79036Y46675
X32715Y66751
X32715Y64211
X35255Y66751
X35255Y64211
X37795Y66751
X37795Y64211
X40335Y64211
X40335Y66751
X42875Y66751
X42875Y64211
X45415Y64211
X45415Y66751
X47955Y66751
X47955Y64211
X50495Y64211
X50495Y66751
X53035Y64211
X53035Y66751
X30175Y66751
X30175Y64211
X32715Y23571
X32715Y21031
X35255Y21031
X35255Y23571
X37795Y23571
X37795Y21031
X40335Y21031
X40335Y23571
X42875Y23571
T4
X40890Y75803
X38350Y75803
T5
X85739Y80317
X37682Y54198
X37682Y51658
X37682Y49118
X37682Y46578
X37682Y44038
X70499Y80317
X73039Y80317
X75579Y80317
X78119Y80317
X80659Y80317
X83199Y80317
X88279Y80317
X37682Y56738
T6
X55785Y26225
X86455Y21114
X60674Y21114
X58229Y41116
X60452Y26225
X36227Y72898
X39783Y69342
X17780Y52673
X36671Y74232
X20669Y48895
X29337Y15780
X64452Y19114
X30004Y54673
X48895Y73343
X31115Y74898
X46450Y68231
X68231Y47339
X55562Y20003
X35560Y34893
X54673Y16891
X49562Y16891
X46450Y25336
M30