G04 EAGLE Gerber X2 export*
%TF.Part,Single*%
%TF.FileFunction,Profile,NP*%
%TF.FilePolarity,Positive*%
%TF.GenerationSoftware,Autodesk,EAGLE,8.7.0*%
%TF.CreationDate,2018-04-01T16:58:45Z*%
G75*
%MOMM*%
%FSLAX34Y34*%
%LPD*%
%AMOC8*
5,1,8,0,0,1.08239X$1,22.5*%
G01*
%ADD10C,0.254000*%


D10*
X-1524Y72644D02*
X-1344Y68526D01*
X-806Y64440D01*
X86Y60416D01*
X1325Y56486D01*
X2902Y52678D01*
X4806Y49022D01*
X7020Y45546D01*
X9529Y42276D01*
X12313Y39237D01*
X15352Y36453D01*
X18622Y33944D01*
X22098Y31730D01*
X25754Y29826D01*
X29562Y28249D01*
X33492Y27010D01*
X37516Y26118D01*
X41602Y25580D01*
X45720Y25400D01*
X945134Y25400D01*
X949384Y25586D01*
X953602Y26141D01*
X957756Y27062D01*
X961814Y28341D01*
X965744Y29969D01*
X969518Y31934D01*
X973106Y34220D01*
X976481Y36810D01*
X979618Y39684D01*
X982492Y42821D01*
X985082Y46196D01*
X987368Y49784D01*
X989333Y53558D01*
X990961Y57488D01*
X992240Y61546D01*
X993161Y65700D01*
X993716Y69918D01*
X993902Y74168D01*
X993902Y804418D01*
X993729Y808381D01*
X993211Y812313D01*
X992353Y816185D01*
X991160Y819968D01*
X989642Y823633D01*
X987811Y827151D01*
X985680Y830496D01*
X983265Y833643D01*
X980585Y836567D01*
X977661Y839247D01*
X974514Y841662D01*
X971169Y843793D01*
X967651Y845624D01*
X963986Y847142D01*
X960203Y848335D01*
X956331Y849193D01*
X952399Y849711D01*
X948436Y849884D01*
X48768Y849884D01*
X44385Y849693D01*
X40035Y849120D01*
X35751Y848170D01*
X31567Y846851D01*
X27514Y845172D01*
X23622Y843146D01*
X19922Y840789D01*
X16441Y838118D01*
X13206Y835154D01*
X10242Y831919D01*
X7571Y828438D01*
X5214Y824738D01*
X3188Y820846D01*
X1509Y816793D01*
X190Y812609D01*
X-760Y808325D01*
X-1333Y803975D01*
X-1524Y799592D01*
X-1524Y692912D01*
X-1524Y72644D01*
X277874Y237626D02*
X277806Y236580D01*
X277669Y235542D01*
X277464Y234514D01*
X277193Y233502D01*
X276857Y232510D01*
X276456Y231542D01*
X275992Y230603D01*
X275469Y229696D01*
X274887Y228825D01*
X274249Y227994D01*
X273558Y227206D01*
X272817Y226465D01*
X272030Y225775D01*
X271199Y225137D01*
X270328Y224555D01*
X269420Y224031D01*
X268481Y223568D01*
X267513Y223167D01*
X266521Y222830D01*
X265509Y222559D01*
X264482Y222355D01*
X263443Y222218D01*
X262398Y222149D01*
X261350Y222149D01*
X260305Y222218D01*
X259266Y222355D01*
X258239Y222559D01*
X257227Y222830D01*
X256235Y223167D01*
X255267Y223568D01*
X254328Y224031D01*
X253420Y224555D01*
X252549Y225137D01*
X251718Y225775D01*
X250931Y226465D01*
X250190Y227206D01*
X249499Y227994D01*
X248862Y228825D01*
X248280Y229696D01*
X247756Y230603D01*
X247292Y231542D01*
X246891Y232510D01*
X246555Y233502D01*
X246284Y234514D01*
X246079Y235542D01*
X245943Y236580D01*
X245874Y237626D01*
X245874Y238673D01*
X245943Y239718D01*
X246079Y240757D01*
X246284Y241784D01*
X246555Y242796D01*
X246891Y243788D01*
X247292Y244756D01*
X247756Y245696D01*
X248280Y246603D01*
X248862Y247474D01*
X249499Y248305D01*
X250190Y249093D01*
X250931Y249833D01*
X251718Y250524D01*
X252549Y251162D01*
X253420Y251744D01*
X254328Y252268D01*
X255267Y252731D01*
X256235Y253132D01*
X257227Y253469D01*
X258239Y253740D01*
X259266Y253944D01*
X260305Y254081D01*
X261350Y254149D01*
X262398Y254149D01*
X263443Y254081D01*
X264482Y253944D01*
X265509Y253740D01*
X266521Y253469D01*
X267513Y253132D01*
X268481Y252731D01*
X269420Y252268D01*
X270328Y251744D01*
X271199Y251162D01*
X272030Y250524D01*
X272817Y249833D01*
X273558Y249093D01*
X274249Y248305D01*
X274887Y247474D01*
X275469Y246603D01*
X275992Y245696D01*
X276456Y244756D01*
X276857Y243788D01*
X277193Y242796D01*
X277464Y241784D01*
X277669Y240757D01*
X277806Y239718D01*
X277874Y238673D01*
X277874Y237626D01*
X277874Y638643D02*
X277806Y637598D01*
X277669Y636559D01*
X277464Y635532D01*
X277193Y634520D01*
X276857Y633528D01*
X276456Y632560D01*
X275992Y631620D01*
X275469Y630713D01*
X274887Y629842D01*
X274249Y629011D01*
X273558Y628223D01*
X272817Y627483D01*
X272030Y626792D01*
X271199Y626154D01*
X270328Y625572D01*
X269420Y625048D01*
X268481Y624585D01*
X267513Y624184D01*
X266521Y623847D01*
X265509Y623576D01*
X264482Y623372D01*
X263443Y623235D01*
X262398Y623167D01*
X261350Y623167D01*
X260305Y623235D01*
X259266Y623372D01*
X258239Y623576D01*
X257227Y623847D01*
X256235Y624184D01*
X255267Y624585D01*
X254328Y625048D01*
X253420Y625572D01*
X252549Y626154D01*
X251718Y626792D01*
X250931Y627483D01*
X250190Y628223D01*
X249499Y629011D01*
X248862Y629842D01*
X248280Y630713D01*
X247756Y631620D01*
X247292Y632560D01*
X246891Y633528D01*
X246555Y634520D01*
X246284Y635532D01*
X246079Y636559D01*
X245943Y637598D01*
X245874Y638643D01*
X245874Y639690D01*
X245943Y640736D01*
X246079Y641774D01*
X246284Y642802D01*
X246555Y643814D01*
X246891Y644806D01*
X247292Y645774D01*
X247756Y646713D01*
X248280Y647620D01*
X248862Y648491D01*
X249499Y649322D01*
X250190Y650110D01*
X250931Y650851D01*
X251718Y651541D01*
X252549Y652179D01*
X253420Y652761D01*
X254328Y653285D01*
X255267Y653748D01*
X256235Y654149D01*
X257227Y654486D01*
X258239Y654757D01*
X259266Y654961D01*
X260305Y655098D01*
X261350Y655167D01*
X262398Y655167D01*
X263443Y655098D01*
X264482Y654961D01*
X265509Y654757D01*
X266521Y654486D01*
X267513Y654149D01*
X268481Y653748D01*
X269420Y653285D01*
X270328Y652761D01*
X271199Y652179D01*
X272030Y651541D01*
X272817Y650851D01*
X273558Y650110D01*
X274249Y649322D01*
X274887Y648491D01*
X275469Y647620D01*
X275992Y646713D01*
X276456Y645774D01*
X276857Y644806D01*
X277193Y643814D01*
X277464Y642802D01*
X277669Y641774D01*
X277806Y640736D01*
X277874Y639690D01*
X277874Y638643D01*
X667911Y638643D02*
X667843Y637598D01*
X667706Y636559D01*
X667502Y635532D01*
X667231Y634520D01*
X666894Y633528D01*
X666493Y632560D01*
X666030Y631620D01*
X665506Y630713D01*
X664924Y629842D01*
X664286Y629011D01*
X663596Y628223D01*
X662855Y627483D01*
X662067Y626792D01*
X661236Y626154D01*
X660365Y625572D01*
X659458Y625048D01*
X658518Y624585D01*
X657551Y624184D01*
X656559Y623847D01*
X655547Y623576D01*
X654519Y623372D01*
X653481Y623235D01*
X652435Y623167D01*
X651388Y623167D01*
X650342Y623235D01*
X649304Y623372D01*
X648276Y623576D01*
X647264Y623847D01*
X646272Y624184D01*
X645305Y624585D01*
X644365Y625048D01*
X643458Y625572D01*
X642587Y626154D01*
X641756Y626792D01*
X640968Y627483D01*
X640227Y628223D01*
X639537Y629011D01*
X638899Y629842D01*
X638317Y630713D01*
X637793Y631620D01*
X637330Y632560D01*
X636929Y633528D01*
X636592Y634520D01*
X636321Y635532D01*
X636117Y636559D01*
X635980Y637598D01*
X635911Y638643D01*
X635911Y639690D01*
X635980Y640736D01*
X636117Y641774D01*
X636321Y642802D01*
X636592Y643814D01*
X636929Y644806D01*
X637330Y645774D01*
X637793Y646713D01*
X638317Y647620D01*
X638899Y648491D01*
X639537Y649322D01*
X640227Y650110D01*
X640968Y650851D01*
X641756Y651541D01*
X642587Y652179D01*
X643458Y652761D01*
X644365Y653285D01*
X645305Y653748D01*
X646272Y654149D01*
X647264Y654486D01*
X648276Y654757D01*
X649304Y654961D01*
X650342Y655098D01*
X651388Y655167D01*
X652435Y655167D01*
X653481Y655098D01*
X654519Y654961D01*
X655547Y654757D01*
X656559Y654486D01*
X657551Y654149D01*
X658518Y653748D01*
X659458Y653285D01*
X660365Y652761D01*
X661236Y652179D01*
X662067Y651541D01*
X662855Y650851D01*
X663596Y650110D01*
X664286Y649322D01*
X664924Y648491D01*
X665506Y647620D01*
X666030Y646713D01*
X666493Y645774D01*
X666894Y644806D01*
X667231Y643814D01*
X667502Y642802D01*
X667706Y641774D01*
X667843Y640736D01*
X667911Y639690D01*
X667911Y638643D01*
X667911Y237626D02*
X667843Y236580D01*
X667706Y235542D01*
X667502Y234514D01*
X667231Y233502D01*
X666894Y232510D01*
X666493Y231542D01*
X666030Y230603D01*
X665506Y229696D01*
X664924Y228825D01*
X664286Y227994D01*
X663596Y227206D01*
X662855Y226465D01*
X662067Y225775D01*
X661236Y225137D01*
X660365Y224555D01*
X659458Y224031D01*
X658518Y223568D01*
X657551Y223167D01*
X656559Y222830D01*
X655547Y222559D01*
X654519Y222355D01*
X653481Y222218D01*
X652435Y222149D01*
X651388Y222149D01*
X650342Y222218D01*
X649304Y222355D01*
X648276Y222559D01*
X647264Y222830D01*
X646272Y223167D01*
X645305Y223568D01*
X644365Y224031D01*
X643458Y224555D01*
X642587Y225137D01*
X641756Y225775D01*
X640968Y226465D01*
X640227Y227206D01*
X639537Y227994D01*
X638899Y228825D01*
X638317Y229696D01*
X637793Y230603D01*
X637330Y231542D01*
X636929Y232510D01*
X636592Y233502D01*
X636321Y234514D01*
X636117Y235542D01*
X635980Y236580D01*
X635911Y237626D01*
X635911Y238673D01*
X635980Y239718D01*
X636117Y240757D01*
X636321Y241784D01*
X636592Y242796D01*
X636929Y243788D01*
X637330Y244756D01*
X637793Y245696D01*
X638317Y246603D01*
X638899Y247474D01*
X639537Y248305D01*
X640227Y249093D01*
X640968Y249833D01*
X641756Y250524D01*
X642587Y251162D01*
X643458Y251744D01*
X644365Y252268D01*
X645305Y252731D01*
X646272Y253132D01*
X647264Y253469D01*
X648276Y253740D01*
X649304Y253944D01*
X650342Y254081D01*
X651388Y254149D01*
X652435Y254149D01*
X653481Y254081D01*
X654519Y253944D01*
X655547Y253740D01*
X656559Y253469D01*
X657551Y253132D01*
X658518Y252731D01*
X659458Y252268D01*
X660365Y251744D01*
X661236Y251162D01*
X662067Y250524D01*
X662855Y249833D01*
X663596Y249093D01*
X664286Y248305D01*
X664924Y247474D01*
X665506Y246603D01*
X666030Y245696D01*
X666493Y244756D01*
X666894Y243788D01*
X667231Y242796D01*
X667502Y241784D01*
X667706Y240757D01*
X667843Y239718D01*
X667911Y238673D01*
X667911Y237626D01*
X52000Y819476D02*
X51932Y818431D01*
X51795Y817392D01*
X51590Y816365D01*
X51319Y815353D01*
X50983Y814361D01*
X50582Y813393D01*
X50118Y812454D01*
X49595Y811546D01*
X49013Y810675D01*
X48375Y809844D01*
X47684Y809057D01*
X46943Y808316D01*
X46156Y807625D01*
X45325Y806988D01*
X44454Y806406D01*
X43546Y805882D01*
X42607Y805418D01*
X41639Y805017D01*
X40647Y804681D01*
X39635Y804410D01*
X38608Y804205D01*
X37569Y804069D01*
X36524Y804000D01*
X35476Y804000D01*
X34431Y804069D01*
X33392Y804205D01*
X32365Y804410D01*
X31353Y804681D01*
X30361Y805017D01*
X29393Y805418D01*
X28454Y805882D01*
X27546Y806406D01*
X26675Y806988D01*
X25844Y807625D01*
X25057Y808316D01*
X24316Y809057D01*
X23625Y809844D01*
X22988Y810675D01*
X22406Y811546D01*
X21882Y812454D01*
X21418Y813393D01*
X21017Y814361D01*
X20681Y815353D01*
X20410Y816365D01*
X20205Y817392D01*
X20069Y818431D01*
X20000Y819476D01*
X20000Y820524D01*
X20069Y821569D01*
X20205Y822608D01*
X20410Y823635D01*
X20681Y824647D01*
X21017Y825639D01*
X21418Y826607D01*
X21882Y827546D01*
X22406Y828454D01*
X22988Y829325D01*
X23625Y830156D01*
X24316Y830943D01*
X25057Y831684D01*
X25844Y832375D01*
X26675Y833013D01*
X27546Y833595D01*
X28454Y834118D01*
X29393Y834582D01*
X30361Y834983D01*
X31353Y835319D01*
X32365Y835590D01*
X33392Y835795D01*
X34431Y835932D01*
X35476Y836000D01*
X36524Y836000D01*
X37569Y835932D01*
X38608Y835795D01*
X39635Y835590D01*
X40647Y835319D01*
X41639Y834983D01*
X42607Y834582D01*
X43546Y834118D01*
X44454Y833595D01*
X45325Y833013D01*
X46156Y832375D01*
X46943Y831684D01*
X47684Y830943D01*
X48375Y830156D01*
X49013Y829325D01*
X49595Y828454D01*
X50118Y827546D01*
X50582Y826607D01*
X50983Y825639D01*
X51319Y824647D01*
X51590Y823635D01*
X51795Y822608D01*
X51932Y821569D01*
X52000Y820524D01*
X52000Y819476D01*
X52000Y56400D02*
X51932Y55355D01*
X51795Y54316D01*
X51590Y53289D01*
X51319Y52277D01*
X50983Y51285D01*
X50582Y50317D01*
X50118Y49378D01*
X49595Y48470D01*
X49013Y47599D01*
X48375Y46768D01*
X47684Y45981D01*
X46943Y45240D01*
X46156Y44549D01*
X45325Y43912D01*
X44454Y43330D01*
X43546Y42806D01*
X42607Y42342D01*
X41639Y41941D01*
X40647Y41605D01*
X39635Y41334D01*
X38608Y41129D01*
X37569Y40993D01*
X36524Y40924D01*
X35476Y40924D01*
X34431Y40993D01*
X33392Y41129D01*
X32365Y41334D01*
X31353Y41605D01*
X30361Y41941D01*
X29393Y42342D01*
X28454Y42806D01*
X27546Y43330D01*
X26675Y43912D01*
X25844Y44549D01*
X25057Y45240D01*
X24316Y45981D01*
X23625Y46768D01*
X22988Y47599D01*
X22406Y48470D01*
X21882Y49378D01*
X21418Y50317D01*
X21017Y51285D01*
X20681Y52277D01*
X20410Y53289D01*
X20205Y54316D01*
X20069Y55355D01*
X20000Y56400D01*
X20000Y57448D01*
X20069Y58493D01*
X20205Y59532D01*
X20410Y60559D01*
X20681Y61571D01*
X21017Y62563D01*
X21418Y63531D01*
X21882Y64470D01*
X22406Y65378D01*
X22988Y66249D01*
X23625Y67080D01*
X24316Y67867D01*
X25057Y68608D01*
X25844Y69299D01*
X26675Y69937D01*
X27546Y70519D01*
X28454Y71042D01*
X29393Y71506D01*
X30361Y71907D01*
X31353Y72243D01*
X32365Y72514D01*
X33392Y72719D01*
X34431Y72856D01*
X35476Y72924D01*
X36524Y72924D01*
X37569Y72856D01*
X38608Y72719D01*
X39635Y72514D01*
X40647Y72243D01*
X41639Y71907D01*
X42607Y71506D01*
X43546Y71042D01*
X44454Y70519D01*
X45325Y69937D01*
X46156Y69299D01*
X46943Y68608D01*
X47684Y67867D01*
X48375Y67080D01*
X49013Y66249D01*
X49595Y65378D01*
X50118Y64470D01*
X50582Y63531D01*
X50983Y62563D01*
X51319Y61571D01*
X51590Y60559D01*
X51795Y59532D01*
X51932Y58493D01*
X52000Y57448D01*
X52000Y56400D01*
X976000Y819476D02*
X975932Y818431D01*
X975795Y817392D01*
X975590Y816365D01*
X975319Y815353D01*
X974983Y814361D01*
X974582Y813393D01*
X974118Y812454D01*
X973595Y811546D01*
X973013Y810675D01*
X972375Y809844D01*
X971684Y809057D01*
X970943Y808316D01*
X970156Y807625D01*
X969325Y806988D01*
X968454Y806406D01*
X967546Y805882D01*
X966607Y805418D01*
X965639Y805017D01*
X964647Y804681D01*
X963635Y804410D01*
X962608Y804205D01*
X961569Y804069D01*
X960524Y804000D01*
X959476Y804000D01*
X958431Y804069D01*
X957392Y804205D01*
X956365Y804410D01*
X955353Y804681D01*
X954361Y805017D01*
X953393Y805418D01*
X952454Y805882D01*
X951546Y806406D01*
X950675Y806988D01*
X949844Y807625D01*
X949057Y808316D01*
X948316Y809057D01*
X947625Y809844D01*
X946988Y810675D01*
X946406Y811546D01*
X945882Y812454D01*
X945418Y813393D01*
X945017Y814361D01*
X944681Y815353D01*
X944410Y816365D01*
X944205Y817392D01*
X944069Y818431D01*
X944000Y819476D01*
X944000Y820524D01*
X944069Y821569D01*
X944205Y822608D01*
X944410Y823635D01*
X944681Y824647D01*
X945017Y825639D01*
X945418Y826607D01*
X945882Y827546D01*
X946406Y828454D01*
X946988Y829325D01*
X947625Y830156D01*
X948316Y830943D01*
X949057Y831684D01*
X949844Y832375D01*
X950675Y833013D01*
X951546Y833595D01*
X952454Y834118D01*
X953393Y834582D01*
X954361Y834983D01*
X955353Y835319D01*
X956365Y835590D01*
X957392Y835795D01*
X958431Y835932D01*
X959476Y836000D01*
X960524Y836000D01*
X961569Y835932D01*
X962608Y835795D01*
X963635Y835590D01*
X964647Y835319D01*
X965639Y834983D01*
X966607Y834582D01*
X967546Y834118D01*
X968454Y833595D01*
X969325Y833013D01*
X970156Y832375D01*
X970943Y831684D01*
X971684Y830943D01*
X972375Y830156D01*
X973013Y829325D01*
X973595Y828454D01*
X974118Y827546D01*
X974582Y826607D01*
X974983Y825639D01*
X975319Y824647D01*
X975590Y823635D01*
X975795Y822608D01*
X975932Y821569D01*
X976000Y820524D01*
X976000Y819476D01*
X976000Y56400D02*
X975932Y55355D01*
X975795Y54316D01*
X975590Y53289D01*
X975319Y52277D01*
X974983Y51285D01*
X974582Y50317D01*
X974118Y49378D01*
X973595Y48470D01*
X973013Y47599D01*
X972375Y46768D01*
X971684Y45981D01*
X970943Y45240D01*
X970156Y44549D01*
X969325Y43912D01*
X968454Y43330D01*
X967546Y42806D01*
X966607Y42342D01*
X965639Y41941D01*
X964647Y41605D01*
X963635Y41334D01*
X962608Y41129D01*
X961569Y40993D01*
X960524Y40924D01*
X959476Y40924D01*
X958431Y40993D01*
X957392Y41129D01*
X956365Y41334D01*
X955353Y41605D01*
X954361Y41941D01*
X953393Y42342D01*
X952454Y42806D01*
X951546Y43330D01*
X950675Y43912D01*
X949844Y44549D01*
X949057Y45240D01*
X948316Y45981D01*
X947625Y46768D01*
X946988Y47599D01*
X946406Y48470D01*
X945882Y49378D01*
X945418Y50317D01*
X945017Y51285D01*
X944681Y52277D01*
X944410Y53289D01*
X944205Y54316D01*
X944069Y55355D01*
X944000Y56400D01*
X944000Y57448D01*
X944069Y58493D01*
X944205Y59532D01*
X944410Y60559D01*
X944681Y61571D01*
X945017Y62563D01*
X945418Y63531D01*
X945882Y64470D01*
X946406Y65378D01*
X946988Y66249D01*
X947625Y67080D01*
X948316Y67867D01*
X949057Y68608D01*
X949844Y69299D01*
X950675Y69937D01*
X951546Y70519D01*
X952454Y71042D01*
X953393Y71506D01*
X954361Y71907D01*
X955353Y72243D01*
X956365Y72514D01*
X957392Y72719D01*
X958431Y72856D01*
X959476Y72924D01*
X960524Y72924D01*
X961569Y72856D01*
X962608Y72719D01*
X963635Y72514D01*
X964647Y72243D01*
X965639Y71907D01*
X966607Y71506D01*
X967546Y71042D01*
X968454Y70519D01*
X969325Y69937D01*
X970156Y69299D01*
X970943Y68608D01*
X971684Y67867D01*
X972375Y67080D01*
X973013Y66249D01*
X973595Y65378D01*
X974118Y64470D01*
X974582Y63531D01*
X974983Y62563D01*
X975319Y61571D01*
X975590Y60559D01*
X975795Y59532D01*
X975932Y58493D01*
X976000Y57448D01*
X976000Y56400D01*
X277874Y237626D02*
X277806Y236580D01*
X277669Y235542D01*
X277464Y234514D01*
X277193Y233502D01*
X276857Y232510D01*
X276456Y231542D01*
X275992Y230603D01*
X275469Y229696D01*
X274887Y228825D01*
X274249Y227994D01*
X273558Y227206D01*
X272817Y226465D01*
X272030Y225775D01*
X271199Y225137D01*
X270328Y224555D01*
X269420Y224031D01*
X268481Y223568D01*
X267513Y223167D01*
X266521Y222830D01*
X265509Y222559D01*
X264482Y222355D01*
X263443Y222218D01*
X262398Y222149D01*
X261350Y222149D01*
X260305Y222218D01*
X259266Y222355D01*
X258239Y222559D01*
X257227Y222830D01*
X256235Y223167D01*
X255267Y223568D01*
X254328Y224031D01*
X253420Y224555D01*
X252549Y225137D01*
X251718Y225775D01*
X250931Y226465D01*
X250190Y227206D01*
X249499Y227994D01*
X248862Y228825D01*
X248280Y229696D01*
X247756Y230603D01*
X247292Y231542D01*
X246891Y232510D01*
X246555Y233502D01*
X246284Y234514D01*
X246079Y235542D01*
X245943Y236580D01*
X245874Y237626D01*
X245874Y238673D01*
X245943Y239718D01*
X246079Y240757D01*
X246284Y241784D01*
X246555Y242796D01*
X246891Y243788D01*
X247292Y244756D01*
X247756Y245696D01*
X248280Y246603D01*
X248862Y247474D01*
X249499Y248305D01*
X250190Y249093D01*
X250931Y249833D01*
X251718Y250524D01*
X252549Y251162D01*
X253420Y251744D01*
X254328Y252268D01*
X255267Y252731D01*
X256235Y253132D01*
X257227Y253469D01*
X258239Y253740D01*
X259266Y253944D01*
X260305Y254081D01*
X261350Y254149D01*
X262398Y254149D01*
X263443Y254081D01*
X264482Y253944D01*
X265509Y253740D01*
X266521Y253469D01*
X267513Y253132D01*
X268481Y252731D01*
X269420Y252268D01*
X270328Y251744D01*
X271199Y251162D01*
X272030Y250524D01*
X272817Y249833D01*
X273558Y249093D01*
X274249Y248305D01*
X274887Y247474D01*
X275469Y246603D01*
X275992Y245696D01*
X276456Y244756D01*
X276857Y243788D01*
X277193Y242796D01*
X277464Y241784D01*
X277669Y240757D01*
X277806Y239718D01*
X277874Y238673D01*
X277874Y237626D01*
X277874Y638643D02*
X277806Y637598D01*
X277669Y636559D01*
X277464Y635532D01*
X277193Y634520D01*
X276857Y633528D01*
X276456Y632560D01*
X275992Y631620D01*
X275469Y630713D01*
X274887Y629842D01*
X274249Y629011D01*
X273558Y628223D01*
X272817Y627483D01*
X272030Y626792D01*
X271199Y626154D01*
X270328Y625572D01*
X269420Y625048D01*
X268481Y624585D01*
X267513Y624184D01*
X266521Y623847D01*
X265509Y623576D01*
X264482Y623372D01*
X263443Y623235D01*
X262398Y623167D01*
X261350Y623167D01*
X260305Y623235D01*
X259266Y623372D01*
X258239Y623576D01*
X257227Y623847D01*
X256235Y624184D01*
X255267Y624585D01*
X254328Y625048D01*
X253420Y625572D01*
X252549Y626154D01*
X251718Y626792D01*
X250931Y627483D01*
X250190Y628223D01*
X249499Y629011D01*
X248862Y629842D01*
X248280Y630713D01*
X247756Y631620D01*
X247292Y632560D01*
X246891Y633528D01*
X246555Y634520D01*
X246284Y635532D01*
X246079Y636559D01*
X245943Y637598D01*
X245874Y638643D01*
X245874Y639690D01*
X245943Y640736D01*
X246079Y641774D01*
X246284Y642802D01*
X246555Y643814D01*
X246891Y644806D01*
X247292Y645774D01*
X247756Y646713D01*
X248280Y647620D01*
X248862Y648491D01*
X249499Y649322D01*
X250190Y650110D01*
X250931Y650851D01*
X251718Y651541D01*
X252549Y652179D01*
X253420Y652761D01*
X254328Y653285D01*
X255267Y653748D01*
X256235Y654149D01*
X257227Y654486D01*
X258239Y654757D01*
X259266Y654961D01*
X260305Y655098D01*
X261350Y655167D01*
X262398Y655167D01*
X263443Y655098D01*
X264482Y654961D01*
X265509Y654757D01*
X266521Y654486D01*
X267513Y654149D01*
X268481Y653748D01*
X269420Y653285D01*
X270328Y652761D01*
X271199Y652179D01*
X272030Y651541D01*
X272817Y650851D01*
X273558Y650110D01*
X274249Y649322D01*
X274887Y648491D01*
X275469Y647620D01*
X275992Y646713D01*
X276456Y645774D01*
X276857Y644806D01*
X277193Y643814D01*
X277464Y642802D01*
X277669Y641774D01*
X277806Y640736D01*
X277874Y639690D01*
X277874Y638643D01*
X667911Y638643D02*
X667843Y637598D01*
X667706Y636559D01*
X667502Y635532D01*
X667231Y634520D01*
X666894Y633528D01*
X666493Y632560D01*
X666030Y631620D01*
X665506Y630713D01*
X664924Y629842D01*
X664286Y629011D01*
X663596Y628223D01*
X662855Y627483D01*
X662067Y626792D01*
X661236Y626154D01*
X660365Y625572D01*
X659458Y625048D01*
X658518Y624585D01*
X657551Y624184D01*
X656559Y623847D01*
X655547Y623576D01*
X654519Y623372D01*
X653481Y623235D01*
X652435Y623167D01*
X651388Y623167D01*
X650342Y623235D01*
X649304Y623372D01*
X648276Y623576D01*
X647264Y623847D01*
X646272Y624184D01*
X645305Y624585D01*
X644365Y625048D01*
X643458Y625572D01*
X642587Y626154D01*
X641756Y626792D01*
X640968Y627483D01*
X640227Y628223D01*
X639537Y629011D01*
X638899Y629842D01*
X638317Y630713D01*
X637793Y631620D01*
X637330Y632560D01*
X636929Y633528D01*
X636592Y634520D01*
X636321Y635532D01*
X636117Y636559D01*
X635980Y637598D01*
X635911Y638643D01*
X635911Y639690D01*
X635980Y640736D01*
X636117Y641774D01*
X636321Y642802D01*
X636592Y643814D01*
X636929Y644806D01*
X637330Y645774D01*
X637793Y646713D01*
X638317Y647620D01*
X638899Y648491D01*
X639537Y649322D01*
X640227Y650110D01*
X640968Y650851D01*
X641756Y651541D01*
X642587Y652179D01*
X643458Y652761D01*
X644365Y653285D01*
X645305Y653748D01*
X646272Y654149D01*
X647264Y654486D01*
X648276Y654757D01*
X649304Y654961D01*
X650342Y655098D01*
X651388Y655167D01*
X652435Y655167D01*
X653481Y655098D01*
X654519Y654961D01*
X655547Y654757D01*
X656559Y654486D01*
X657551Y654149D01*
X658518Y653748D01*
X659458Y653285D01*
X660365Y652761D01*
X661236Y652179D01*
X662067Y651541D01*
X662855Y650851D01*
X663596Y650110D01*
X664286Y649322D01*
X664924Y648491D01*
X665506Y647620D01*
X666030Y646713D01*
X666493Y645774D01*
X666894Y644806D01*
X667231Y643814D01*
X667502Y642802D01*
X667706Y641774D01*
X667843Y640736D01*
X667911Y639690D01*
X667911Y638643D01*
X667911Y237626D02*
X667843Y236580D01*
X667706Y235542D01*
X667502Y234514D01*
X667231Y233502D01*
X666894Y232510D01*
X666493Y231542D01*
X666030Y230603D01*
X665506Y229696D01*
X664924Y228825D01*
X664286Y227994D01*
X663596Y227206D01*
X662855Y226465D01*
X662067Y225775D01*
X661236Y225137D01*
X660365Y224555D01*
X659458Y224031D01*
X658518Y223568D01*
X657551Y223167D01*
X656559Y222830D01*
X655547Y222559D01*
X654519Y222355D01*
X653481Y222218D01*
X652435Y222149D01*
X651388Y222149D01*
X650342Y222218D01*
X649304Y222355D01*
X648276Y222559D01*
X647264Y222830D01*
X646272Y223167D01*
X645305Y223568D01*
X644365Y224031D01*
X643458Y224555D01*
X642587Y225137D01*
X641756Y225775D01*
X640968Y226465D01*
X640227Y227206D01*
X639537Y227994D01*
X638899Y228825D01*
X638317Y229696D01*
X637793Y230603D01*
X637330Y231542D01*
X636929Y232510D01*
X636592Y233502D01*
X636321Y234514D01*
X636117Y235542D01*
X635980Y236580D01*
X635911Y237626D01*
X635911Y238673D01*
X635980Y239718D01*
X636117Y240757D01*
X636321Y241784D01*
X636592Y242796D01*
X636929Y243788D01*
X637330Y244756D01*
X637793Y245696D01*
X638317Y246603D01*
X638899Y247474D01*
X639537Y248305D01*
X640227Y249093D01*
X640968Y249833D01*
X641756Y250524D01*
X642587Y251162D01*
X643458Y251744D01*
X644365Y252268D01*
X645305Y252731D01*
X646272Y253132D01*
X647264Y253469D01*
X648276Y253740D01*
X649304Y253944D01*
X650342Y254081D01*
X651388Y254149D01*
X652435Y254149D01*
X653481Y254081D01*
X654519Y253944D01*
X655547Y253740D01*
X656559Y253469D01*
X657551Y253132D01*
X658518Y252731D01*
X659458Y252268D01*
X660365Y251744D01*
X661236Y251162D01*
X662067Y250524D01*
X662855Y249833D01*
X663596Y249093D01*
X664286Y248305D01*
X664924Y247474D01*
X665506Y246603D01*
X666030Y245696D01*
X666493Y244756D01*
X666894Y243788D01*
X667231Y242796D01*
X667502Y241784D01*
X667706Y240757D01*
X667843Y239718D01*
X667911Y238673D01*
X667911Y237626D01*
X52000Y819476D02*
X51932Y818431D01*
X51795Y817392D01*
X51590Y816365D01*
X51319Y815353D01*
X50983Y814361D01*
X50582Y813393D01*
X50118Y812454D01*
X49595Y811546D01*
X49013Y810675D01*
X48375Y809844D01*
X47684Y809057D01*
X46943Y808316D01*
X46156Y807625D01*
X45325Y806988D01*
X44454Y806406D01*
X43546Y805882D01*
X42607Y805418D01*
X41639Y805017D01*
X40647Y804681D01*
X39635Y804410D01*
X38608Y804205D01*
X37569Y804069D01*
X36524Y804000D01*
X35476Y804000D01*
X34431Y804069D01*
X33392Y804205D01*
X32365Y804410D01*
X31353Y804681D01*
X30361Y805017D01*
X29393Y805418D01*
X28454Y805882D01*
X27546Y806406D01*
X26675Y806988D01*
X25844Y807625D01*
X25057Y808316D01*
X24316Y809057D01*
X23625Y809844D01*
X22988Y810675D01*
X22406Y811546D01*
X21882Y812454D01*
X21418Y813393D01*
X21017Y814361D01*
X20681Y815353D01*
X20410Y816365D01*
X20205Y817392D01*
X20069Y818431D01*
X20000Y819476D01*
X20000Y820524D01*
X20069Y821569D01*
X20205Y822608D01*
X20410Y823635D01*
X20681Y824647D01*
X21017Y825639D01*
X21418Y826607D01*
X21882Y827546D01*
X22406Y828454D01*
X22988Y829325D01*
X23625Y830156D01*
X24316Y830943D01*
X25057Y831684D01*
X25844Y832375D01*
X26675Y833013D01*
X27546Y833595D01*
X28454Y834118D01*
X29393Y834582D01*
X30361Y834983D01*
X31353Y835319D01*
X32365Y835590D01*
X33392Y835795D01*
X34431Y835932D01*
X35476Y836000D01*
X36524Y836000D01*
X37569Y835932D01*
X38608Y835795D01*
X39635Y835590D01*
X40647Y835319D01*
X41639Y834983D01*
X42607Y834582D01*
X43546Y834118D01*
X44454Y833595D01*
X45325Y833013D01*
X46156Y832375D01*
X46943Y831684D01*
X47684Y830943D01*
X48375Y830156D01*
X49013Y829325D01*
X49595Y828454D01*
X50118Y827546D01*
X50582Y826607D01*
X50983Y825639D01*
X51319Y824647D01*
X51590Y823635D01*
X51795Y822608D01*
X51932Y821569D01*
X52000Y820524D01*
X52000Y819476D01*
X52000Y56400D02*
X51932Y55355D01*
X51795Y54316D01*
X51590Y53289D01*
X51319Y52277D01*
X50983Y51285D01*
X50582Y50317D01*
X50118Y49378D01*
X49595Y48470D01*
X49013Y47599D01*
X48375Y46768D01*
X47684Y45981D01*
X46943Y45240D01*
X46156Y44549D01*
X45325Y43912D01*
X44454Y43330D01*
X43546Y42806D01*
X42607Y42342D01*
X41639Y41941D01*
X40647Y41605D01*
X39635Y41334D01*
X38608Y41129D01*
X37569Y40993D01*
X36524Y40924D01*
X35476Y40924D01*
X34431Y40993D01*
X33392Y41129D01*
X32365Y41334D01*
X31353Y41605D01*
X30361Y41941D01*
X29393Y42342D01*
X28454Y42806D01*
X27546Y43330D01*
X26675Y43912D01*
X25844Y44549D01*
X25057Y45240D01*
X24316Y45981D01*
X23625Y46768D01*
X22988Y47599D01*
X22406Y48470D01*
X21882Y49378D01*
X21418Y50317D01*
X21017Y51285D01*
X20681Y52277D01*
X20410Y53289D01*
X20205Y54316D01*
X20069Y55355D01*
X20000Y56400D01*
X20000Y57448D01*
X20069Y58493D01*
X20205Y59532D01*
X20410Y60559D01*
X20681Y61571D01*
X21017Y62563D01*
X21418Y63531D01*
X21882Y64470D01*
X22406Y65378D01*
X22988Y66249D01*
X23625Y67080D01*
X24316Y67867D01*
X25057Y68608D01*
X25844Y69299D01*
X26675Y69937D01*
X27546Y70519D01*
X28454Y71042D01*
X29393Y71506D01*
X30361Y71907D01*
X31353Y72243D01*
X32365Y72514D01*
X33392Y72719D01*
X34431Y72856D01*
X35476Y72924D01*
X36524Y72924D01*
X37569Y72856D01*
X38608Y72719D01*
X39635Y72514D01*
X40647Y72243D01*
X41639Y71907D01*
X42607Y71506D01*
X43546Y71042D01*
X44454Y70519D01*
X45325Y69937D01*
X46156Y69299D01*
X46943Y68608D01*
X47684Y67867D01*
X48375Y67080D01*
X49013Y66249D01*
X49595Y65378D01*
X50118Y64470D01*
X50582Y63531D01*
X50983Y62563D01*
X51319Y61571D01*
X51590Y60559D01*
X51795Y59532D01*
X51932Y58493D01*
X52000Y57448D01*
X52000Y56400D01*
X976000Y819476D02*
X975932Y818431D01*
X975795Y817392D01*
X975590Y816365D01*
X975319Y815353D01*
X974983Y814361D01*
X974582Y813393D01*
X974118Y812454D01*
X973595Y811546D01*
X973013Y810675D01*
X972375Y809844D01*
X971684Y809057D01*
X970943Y808316D01*
X970156Y807625D01*
X969325Y806988D01*
X968454Y806406D01*
X967546Y805882D01*
X966607Y805418D01*
X965639Y805017D01*
X964647Y804681D01*
X963635Y804410D01*
X962608Y804205D01*
X961569Y804069D01*
X960524Y804000D01*
X959476Y804000D01*
X958431Y804069D01*
X957392Y804205D01*
X956365Y804410D01*
X955353Y804681D01*
X954361Y805017D01*
X953393Y805418D01*
X952454Y805882D01*
X951546Y806406D01*
X950675Y806988D01*
X949844Y807625D01*
X949057Y808316D01*
X948316Y809057D01*
X947625Y809844D01*
X946988Y810675D01*
X946406Y811546D01*
X945882Y812454D01*
X945418Y813393D01*
X945017Y814361D01*
X944681Y815353D01*
X944410Y816365D01*
X944205Y817392D01*
X944069Y818431D01*
X944000Y819476D01*
X944000Y820524D01*
X944069Y821569D01*
X944205Y822608D01*
X944410Y823635D01*
X944681Y824647D01*
X945017Y825639D01*
X945418Y826607D01*
X945882Y827546D01*
X946406Y828454D01*
X946988Y829325D01*
X947625Y830156D01*
X948316Y830943D01*
X949057Y831684D01*
X949844Y832375D01*
X950675Y833013D01*
X951546Y833595D01*
X952454Y834118D01*
X953393Y834582D01*
X954361Y834983D01*
X955353Y835319D01*
X956365Y835590D01*
X957392Y835795D01*
X958431Y835932D01*
X959476Y836000D01*
X960524Y836000D01*
X961569Y835932D01*
X962608Y835795D01*
X963635Y835590D01*
X964647Y835319D01*
X965639Y834983D01*
X966607Y834582D01*
X967546Y834118D01*
X968454Y833595D01*
X969325Y833013D01*
X970156Y832375D01*
X970943Y831684D01*
X971684Y830943D01*
X972375Y830156D01*
X973013Y829325D01*
X973595Y828454D01*
X974118Y827546D01*
X974582Y826607D01*
X974983Y825639D01*
X975319Y824647D01*
X975590Y823635D01*
X975795Y822608D01*
X975932Y821569D01*
X976000Y820524D01*
X976000Y819476D01*
X976000Y56400D02*
X975932Y55355D01*
X975795Y54316D01*
X975590Y53289D01*
X975319Y52277D01*
X974983Y51285D01*
X974582Y50317D01*
X974118Y49378D01*
X973595Y48470D01*
X973013Y47599D01*
X972375Y46768D01*
X971684Y45981D01*
X970943Y45240D01*
X970156Y44549D01*
X969325Y43912D01*
X968454Y43330D01*
X967546Y42806D01*
X966607Y42342D01*
X965639Y41941D01*
X964647Y41605D01*
X963635Y41334D01*
X962608Y41129D01*
X961569Y40993D01*
X960524Y40924D01*
X959476Y40924D01*
X958431Y40993D01*
X957392Y41129D01*
X956365Y41334D01*
X955353Y41605D01*
X954361Y41941D01*
X953393Y42342D01*
X952454Y42806D01*
X951546Y43330D01*
X950675Y43912D01*
X949844Y44549D01*
X949057Y45240D01*
X948316Y45981D01*
X947625Y46768D01*
X946988Y47599D01*
X946406Y48470D01*
X945882Y49378D01*
X945418Y50317D01*
X945017Y51285D01*
X944681Y52277D01*
X944410Y53289D01*
X944205Y54316D01*
X944069Y55355D01*
X944000Y56400D01*
X944000Y57448D01*
X944069Y58493D01*
X944205Y59532D01*
X944410Y60559D01*
X944681Y61571D01*
X945017Y62563D01*
X945418Y63531D01*
X945882Y64470D01*
X946406Y65378D01*
X946988Y66249D01*
X947625Y67080D01*
X948316Y67867D01*
X949057Y68608D01*
X949844Y69299D01*
X950675Y69937D01*
X951546Y70519D01*
X952454Y71042D01*
X953393Y71506D01*
X954361Y71907D01*
X955353Y72243D01*
X956365Y72514D01*
X957392Y72719D01*
X958431Y72856D01*
X959476Y72924D01*
X960524Y72924D01*
X961569Y72856D01*
X962608Y72719D01*
X963635Y72514D01*
X964647Y72243D01*
X965639Y71907D01*
X966607Y71506D01*
X967546Y71042D01*
X968454Y70519D01*
X969325Y69937D01*
X970156Y69299D01*
X970943Y68608D01*
X971684Y67867D01*
X972375Y67080D01*
X973013Y66249D01*
X973595Y65378D01*
X974118Y64470D01*
X974582Y63531D01*
X974983Y62563D01*
X975319Y61571D01*
X975590Y60559D01*
X975795Y59532D01*
X975932Y58493D01*
X976000Y57448D01*
X976000Y56400D01*
X718215Y670173D02*
X719260Y670241D01*
X720299Y670378D01*
X721326Y670582D01*
X722338Y670853D01*
X723330Y671190D01*
X724298Y671591D01*
X725237Y672054D01*
X726145Y672578D01*
X727016Y673160D01*
X727847Y673798D01*
X728634Y674489D01*
X729375Y675229D01*
X730066Y676017D01*
X730703Y676848D01*
X731285Y677719D01*
X731809Y678626D01*
X732273Y679566D01*
X732673Y680534D01*
X733010Y681526D01*
X733281Y682538D01*
X733486Y683565D01*
X733622Y684604D01*
X733691Y685649D01*
X733691Y686696D01*
X733622Y687742D01*
X733486Y688780D01*
X733281Y689808D01*
X733010Y690820D01*
X732673Y691812D01*
X732273Y692780D01*
X731809Y693719D01*
X731285Y694626D01*
X730703Y695497D01*
X730066Y696328D01*
X729375Y697116D01*
X728634Y697857D01*
X727847Y698547D01*
X727016Y699185D01*
X726145Y699767D01*
X725237Y700291D01*
X724298Y700754D01*
X723330Y701155D01*
X722338Y701492D01*
X721326Y701763D01*
X720299Y701967D01*
X719260Y702104D01*
X718215Y702173D01*
X717167Y702173D01*
X716122Y702104D01*
X715083Y701967D01*
X714056Y701763D01*
X713044Y701492D01*
X712052Y701155D01*
X711084Y700754D01*
X710145Y700291D01*
X709237Y699767D01*
X708366Y699185D01*
X707535Y698547D01*
X706748Y697857D01*
X706007Y697116D01*
X705316Y696328D01*
X704678Y695497D01*
X704096Y694626D01*
X703573Y693719D01*
X703109Y692780D01*
X702708Y691812D01*
X702372Y690820D01*
X702101Y689808D01*
X701896Y688780D01*
X701759Y687742D01*
X701691Y686696D01*
X701691Y685649D01*
X701759Y684604D01*
X701896Y683565D01*
X702101Y682538D01*
X702372Y681526D01*
X702708Y680534D01*
X703109Y679566D01*
X703573Y678626D01*
X704096Y677719D01*
X704678Y676848D01*
X705316Y676017D01*
X706007Y675229D01*
X706748Y674489D01*
X707535Y673798D01*
X708366Y673160D01*
X709237Y672578D01*
X710145Y672054D01*
X711084Y671591D01*
X712052Y671190D01*
X713044Y670853D01*
X714056Y670582D01*
X715083Y670378D01*
X716122Y670241D01*
X717167Y670173D01*
X718215Y670173D01*
X870615Y670173D02*
X871660Y670241D01*
X872699Y670378D01*
X873726Y670582D01*
X874738Y670853D01*
X875730Y671190D01*
X876698Y671591D01*
X877637Y672054D01*
X878545Y672578D01*
X879416Y673160D01*
X880247Y673798D01*
X881034Y674489D01*
X881775Y675229D01*
X882466Y676017D01*
X883103Y676848D01*
X883685Y677719D01*
X884209Y678626D01*
X884673Y679566D01*
X885073Y680534D01*
X885410Y681526D01*
X885681Y682538D01*
X885886Y683565D01*
X886022Y684604D01*
X886091Y685649D01*
X886091Y686696D01*
X886022Y687742D01*
X885886Y688780D01*
X885681Y689808D01*
X885410Y690820D01*
X885073Y691812D01*
X884673Y692780D01*
X884209Y693719D01*
X883685Y694626D01*
X883103Y695497D01*
X882466Y696328D01*
X881775Y697116D01*
X881034Y697857D01*
X880247Y698547D01*
X879416Y699185D01*
X878545Y699767D01*
X877637Y700291D01*
X876698Y700754D01*
X875730Y701155D01*
X874738Y701492D01*
X873726Y701763D01*
X872699Y701967D01*
X871660Y702104D01*
X870615Y702173D01*
X869567Y702173D01*
X868522Y702104D01*
X867483Y701967D01*
X866456Y701763D01*
X865444Y701492D01*
X864452Y701155D01*
X863484Y700754D01*
X862545Y700291D01*
X861637Y699767D01*
X860766Y699185D01*
X859935Y698547D01*
X859148Y697857D01*
X858407Y697116D01*
X857716Y696328D01*
X857078Y695497D01*
X856496Y694626D01*
X855973Y693719D01*
X855509Y692780D01*
X855108Y691812D01*
X854772Y690820D01*
X854501Y689808D01*
X854296Y688780D01*
X854159Y687742D01*
X854091Y686696D01*
X854091Y685649D01*
X854159Y684604D01*
X854296Y683565D01*
X854501Y682538D01*
X854772Y681526D01*
X855108Y680534D01*
X855509Y679566D01*
X855973Y678626D01*
X856496Y677719D01*
X857078Y676848D01*
X857716Y676017D01*
X858407Y675229D01*
X859148Y674489D01*
X859935Y673798D01*
X860766Y673160D01*
X861637Y672578D01*
X862545Y672054D01*
X863484Y671591D01*
X864452Y671190D01*
X865444Y670853D01*
X866456Y670582D01*
X867483Y670378D01*
X868522Y670241D01*
X869567Y670173D01*
X870615Y670173D01*
X386821Y604497D02*
X386898Y603627D01*
X387049Y602767D01*
X387275Y601924D01*
X387574Y601103D01*
X387943Y600312D01*
X388380Y599556D01*
X388880Y598840D01*
X389442Y598171D01*
X390059Y597554D01*
X390728Y596993D01*
X391443Y596492D01*
X392200Y596055D01*
X392991Y595686D01*
X393812Y595387D01*
X394655Y595161D01*
X395515Y595010D01*
X396385Y594934D01*
X397258Y594934D01*
X398128Y595010D01*
X398988Y595161D01*
X399831Y595387D01*
X400652Y595686D01*
X401443Y596055D01*
X402200Y596492D01*
X402915Y596993D01*
X403584Y597554D01*
X404201Y598171D01*
X404763Y598840D01*
X405263Y599556D01*
X405700Y600312D01*
X406069Y601103D01*
X406368Y601924D01*
X406594Y602767D01*
X406745Y603627D01*
X406821Y604497D01*
X406821Y605370D01*
X406745Y606240D01*
X406594Y607100D01*
X406368Y607944D01*
X406069Y608764D01*
X405700Y609556D01*
X405263Y610312D01*
X404763Y611027D01*
X404201Y611696D01*
X403584Y612313D01*
X402915Y612875D01*
X402200Y613376D01*
X401443Y613812D01*
X400652Y614181D01*
X399831Y614480D01*
X398988Y614706D01*
X398128Y614858D01*
X397258Y614934D01*
X396385Y614934D01*
X395515Y614858D01*
X394655Y614706D01*
X393812Y614480D01*
X392991Y614181D01*
X392200Y613812D01*
X391443Y613376D01*
X390728Y612875D01*
X390059Y612313D01*
X389442Y611696D01*
X388880Y611027D01*
X388380Y610312D01*
X387943Y609556D01*
X387574Y608764D01*
X387275Y607944D01*
X387049Y607100D01*
X386898Y606240D01*
X386821Y605370D01*
X386821Y604497D01*
X386821Y404425D02*
X386898Y403555D01*
X387049Y402695D01*
X387275Y401852D01*
X387574Y401031D01*
X387943Y400240D01*
X388380Y399484D01*
X388880Y398768D01*
X389442Y398099D01*
X390059Y397482D01*
X390728Y396921D01*
X391443Y396420D01*
X392200Y395983D01*
X392991Y395614D01*
X393812Y395315D01*
X394655Y395089D01*
X395515Y394938D01*
X396385Y394862D01*
X397258Y394862D01*
X398128Y394938D01*
X398988Y395089D01*
X399831Y395315D01*
X400652Y395614D01*
X401443Y395983D01*
X402200Y396420D01*
X402915Y396921D01*
X403584Y397482D01*
X404201Y398099D01*
X404763Y398768D01*
X405263Y399484D01*
X405700Y400240D01*
X406069Y401031D01*
X406368Y401852D01*
X406594Y402695D01*
X406745Y403555D01*
X406821Y404425D01*
X406821Y405298D01*
X406745Y406168D01*
X406594Y407028D01*
X406368Y407872D01*
X406069Y408692D01*
X405700Y409484D01*
X405263Y410240D01*
X404763Y410955D01*
X404201Y411624D01*
X403584Y412241D01*
X402915Y412803D01*
X402200Y413304D01*
X401443Y413740D01*
X400652Y414109D01*
X399831Y414408D01*
X398988Y414634D01*
X398128Y414786D01*
X397258Y414862D01*
X396385Y414862D01*
X395515Y414786D01*
X394655Y414634D01*
X393812Y414408D01*
X392991Y414109D01*
X392200Y413740D01*
X391443Y413304D01*
X390728Y412803D01*
X390059Y412241D01*
X389442Y411624D01*
X388880Y410955D01*
X388380Y410240D01*
X387943Y409484D01*
X387574Y408692D01*
X387275Y407872D01*
X387049Y407028D01*
X386898Y406168D01*
X386821Y405298D01*
X386821Y404425D01*
X6689Y604497D02*
X6766Y603627D01*
X6917Y602767D01*
X7143Y601924D01*
X7442Y601103D01*
X7811Y600312D01*
X8248Y599556D01*
X8748Y598840D01*
X9310Y598171D01*
X9927Y597554D01*
X10596Y596993D01*
X11311Y596492D01*
X12068Y596055D01*
X12859Y595686D01*
X13680Y595387D01*
X14523Y595161D01*
X15383Y595010D01*
X16253Y594934D01*
X17126Y594934D01*
X17996Y595010D01*
X18856Y595161D01*
X19699Y595387D01*
X20520Y595686D01*
X21311Y596055D01*
X22068Y596492D01*
X22783Y596993D01*
X23452Y597554D01*
X24069Y598171D01*
X24631Y598840D01*
X25131Y599556D01*
X25568Y600312D01*
X25937Y601103D01*
X26236Y601924D01*
X26462Y602767D01*
X26613Y603627D01*
X26689Y604497D01*
X26689Y605370D01*
X26613Y606240D01*
X26462Y607100D01*
X26236Y607944D01*
X25937Y608764D01*
X25568Y609556D01*
X25131Y610312D01*
X24631Y611027D01*
X24069Y611696D01*
X23452Y612313D01*
X22783Y612875D01*
X22068Y613376D01*
X21311Y613812D01*
X20520Y614181D01*
X19699Y614480D01*
X18856Y614706D01*
X17996Y614858D01*
X17126Y614934D01*
X16253Y614934D01*
X15383Y614858D01*
X14523Y614706D01*
X13680Y614480D01*
X12859Y614181D01*
X12068Y613812D01*
X11311Y613376D01*
X10596Y612875D01*
X9927Y612313D01*
X9310Y611696D01*
X8748Y611027D01*
X8248Y610312D01*
X7811Y609556D01*
X7442Y608764D01*
X7143Y607944D01*
X6917Y607100D01*
X6766Y606240D01*
X6689Y605370D01*
X6689Y604497D01*
X6689Y404425D02*
X6766Y403555D01*
X6917Y402695D01*
X7143Y401852D01*
X7442Y401031D01*
X7811Y400240D01*
X8248Y399484D01*
X8748Y398768D01*
X9310Y398099D01*
X9927Y397482D01*
X10596Y396921D01*
X11311Y396420D01*
X12068Y395983D01*
X12859Y395614D01*
X13680Y395315D01*
X14523Y395089D01*
X15383Y394938D01*
X16253Y394862D01*
X17126Y394862D01*
X17996Y394938D01*
X18856Y395089D01*
X19699Y395315D01*
X20520Y395614D01*
X21311Y395983D01*
X22068Y396420D01*
X22783Y396921D01*
X23452Y397482D01*
X24069Y398099D01*
X24631Y398768D01*
X25131Y399484D01*
X25568Y400240D01*
X25937Y401031D01*
X26236Y401852D01*
X26462Y402695D01*
X26613Y403555D01*
X26689Y404425D01*
X26689Y405298D01*
X26613Y406168D01*
X26462Y407028D01*
X26236Y407872D01*
X25937Y408692D01*
X25568Y409484D01*
X25131Y410240D01*
X24631Y410955D01*
X24069Y411624D01*
X23452Y412241D01*
X22783Y412803D01*
X22068Y413304D01*
X21311Y413740D01*
X20520Y414109D01*
X19699Y414408D01*
X18856Y414634D01*
X17996Y414786D01*
X17126Y414862D01*
X16253Y414862D01*
X15383Y414786D01*
X14523Y414634D01*
X13680Y414408D01*
X12859Y414109D01*
X12068Y413740D01*
X11311Y413304D01*
X10596Y412803D01*
X9927Y412241D01*
X9310Y411624D01*
X8748Y410955D01*
X8248Y410240D01*
X7811Y409484D01*
X7442Y408692D01*
X7143Y407872D01*
X6917Y407028D01*
X6766Y406168D01*
X6689Y405298D01*
X6689Y404425D01*
M02*
