G04 EAGLE Gerber X2 export*
%TF.Part,Single*%
%TF.FileFunction,Legend,Bot,1*%
%TF.FilePolarity,Positive*%
%TF.GenerationSoftware,Autodesk,EAGLE,8.7.0*%
%TF.CreationDate,2018-04-01T16:58:45Z*%
G75*
%MOMM*%
%FSLAX34Y34*%
%LPD*%
%AMOC8*
5,1,8,0,0,1.08239X$1,22.5*%
G01*
%ADD10C,0.101600*%
%ADD11C,0.127000*%
%ADD12C,0.076200*%

G36*
X494552Y325579D02*
X494552Y325579D01*
X494641Y325581D01*
X494663Y325590D01*
X494686Y325593D01*
X494766Y325632D01*
X494848Y325666D01*
X494866Y325682D01*
X494887Y325692D01*
X494948Y325757D01*
X495014Y325817D01*
X495025Y325838D01*
X495041Y325855D01*
X495076Y325937D01*
X495117Y326017D01*
X495120Y326043D01*
X495129Y326062D01*
X495131Y326112D01*
X495144Y326202D01*
X495144Y366202D01*
X495131Y366275D01*
X495131Y366290D01*
X495128Y366298D01*
X495119Y366378D01*
X495109Y366399D01*
X495105Y366423D01*
X495059Y366500D01*
X495020Y366579D01*
X495003Y366596D01*
X494990Y366616D01*
X494921Y366672D01*
X494857Y366733D01*
X494835Y366742D01*
X494816Y366757D01*
X494732Y366786D01*
X494650Y366821D01*
X494626Y366822D01*
X494604Y366829D01*
X494515Y366827D01*
X494426Y366831D01*
X494403Y366823D01*
X494379Y366823D01*
X494297Y366789D01*
X494212Y366762D01*
X494191Y366746D01*
X494172Y366738D01*
X494134Y366704D01*
X494062Y366650D01*
X474062Y346650D01*
X474024Y346597D01*
X473979Y346549D01*
X473960Y346505D01*
X473933Y346466D01*
X473917Y346403D01*
X473891Y346342D01*
X473889Y346295D01*
X473878Y346249D01*
X473884Y346184D01*
X473881Y346118D01*
X473896Y346073D01*
X473901Y346026D01*
X473930Y345967D01*
X473950Y345904D01*
X473983Y345860D01*
X474000Y345825D01*
X474029Y345798D01*
X474062Y345754D01*
X494062Y325754D01*
X494135Y325703D01*
X494204Y325647D01*
X494226Y325639D01*
X494246Y325625D01*
X494332Y325603D01*
X494416Y325575D01*
X494440Y325575D01*
X494463Y325570D01*
X494552Y325579D01*
G37*
D10*
X796556Y567677D02*
X796556Y579371D01*
X790709Y579371D01*
X788760Y577422D01*
X788760Y573524D01*
X790709Y571575D01*
X796556Y571575D01*
X792658Y571575D02*
X788760Y567677D01*
X784862Y565728D02*
X777066Y565728D01*
X765372Y577422D02*
X767321Y579371D01*
X771219Y579371D01*
X773168Y577422D01*
X773168Y575473D01*
X771219Y573524D01*
X767321Y573524D01*
X765372Y571575D01*
X765372Y569626D01*
X767321Y567677D01*
X771219Y567677D01*
X773168Y569626D01*
X761474Y567677D02*
X761474Y579371D01*
X757576Y571575D02*
X761474Y567677D01*
X757576Y571575D02*
X753678Y567677D01*
X753678Y579371D01*
X749780Y577422D02*
X749780Y569626D01*
X749780Y577422D02*
X747831Y579371D01*
X743933Y579371D01*
X741984Y577422D01*
X741984Y569626D01*
X743933Y567677D01*
X747831Y567677D01*
X749780Y569626D01*
X741984Y577422D01*
X796556Y380559D02*
X796556Y368865D01*
X796556Y380559D02*
X790709Y380559D01*
X788760Y378610D01*
X788760Y374712D01*
X790709Y372763D01*
X796556Y372763D01*
X792658Y372763D02*
X788760Y368865D01*
X784862Y366916D02*
X777066Y366916D01*
X765372Y378610D02*
X767321Y380559D01*
X771219Y380559D01*
X773168Y378610D01*
X773168Y376661D01*
X771219Y374712D01*
X767321Y374712D01*
X765372Y372763D01*
X765372Y370814D01*
X767321Y368865D01*
X771219Y368865D01*
X773168Y370814D01*
X761474Y368865D02*
X761474Y380559D01*
X757576Y372763D02*
X761474Y368865D01*
X757576Y372763D02*
X753678Y368865D01*
X753678Y380559D01*
X749780Y376661D02*
X745882Y380559D01*
X745882Y368865D01*
X749780Y368865D02*
X741984Y368865D01*
X945395Y567677D02*
X945395Y579371D01*
X939548Y579371D01*
X937599Y577422D01*
X937599Y573524D01*
X939548Y571575D01*
X945395Y571575D01*
X941497Y571575D02*
X937599Y567677D01*
X933701Y565728D02*
X925905Y565728D01*
X914211Y577422D02*
X916160Y579371D01*
X920058Y579371D01*
X922007Y577422D01*
X922007Y575473D01*
X920058Y573524D01*
X916160Y573524D01*
X914211Y571575D01*
X914211Y569626D01*
X916160Y567677D01*
X920058Y567677D01*
X922007Y569626D01*
X910313Y567677D02*
X910313Y579371D01*
X906415Y571575D02*
X910313Y567677D01*
X906415Y571575D02*
X902517Y567677D01*
X902517Y579371D01*
X898619Y567677D02*
X890823Y567677D01*
X898619Y567677D02*
X890823Y575473D01*
X890823Y577422D01*
X892772Y579371D01*
X896670Y579371D01*
X898619Y577422D01*
X945395Y479818D02*
X945395Y468124D01*
X945395Y479818D02*
X939548Y479818D01*
X937599Y477869D01*
X937599Y473971D01*
X939548Y472022D01*
X945395Y472022D01*
X941497Y472022D02*
X937599Y468124D01*
X933701Y466175D02*
X925905Y466175D01*
X914211Y477869D02*
X916160Y479818D01*
X920058Y479818D01*
X922007Y477869D01*
X922007Y475920D01*
X920058Y473971D01*
X916160Y473971D01*
X914211Y472022D01*
X914211Y470073D01*
X916160Y468124D01*
X920058Y468124D01*
X922007Y470073D01*
X910313Y468124D02*
X910313Y479818D01*
X906415Y472022D02*
X910313Y468124D01*
X906415Y472022D02*
X902517Y468124D01*
X902517Y479818D01*
X898619Y477869D02*
X896670Y479818D01*
X892772Y479818D01*
X890823Y477869D01*
X890823Y475920D01*
X892772Y473971D01*
X894721Y473971D01*
X892772Y473971D02*
X890823Y472022D01*
X890823Y470073D01*
X892772Y468124D01*
X896670Y468124D01*
X898619Y470073D01*
X945395Y380559D02*
X945395Y368865D01*
X945395Y380559D02*
X939548Y380559D01*
X937599Y378610D01*
X937599Y374712D01*
X939548Y372763D01*
X945395Y372763D01*
X941497Y372763D02*
X937599Y368865D01*
X933701Y366916D02*
X925905Y366916D01*
X914211Y378610D02*
X916160Y380559D01*
X920058Y380559D01*
X922007Y378610D01*
X922007Y376661D01*
X920058Y374712D01*
X916160Y374712D01*
X914211Y372763D01*
X914211Y370814D01*
X916160Y368865D01*
X920058Y368865D01*
X922007Y370814D01*
X910313Y368865D02*
X910313Y380559D01*
X906415Y372763D02*
X910313Y368865D01*
X906415Y372763D02*
X902517Y368865D01*
X902517Y380559D01*
X892772Y380559D02*
X892772Y368865D01*
X898619Y374712D02*
X892772Y380559D01*
X890823Y374712D02*
X898619Y374712D01*
X945395Y271846D02*
X945395Y260152D01*
X945395Y271846D02*
X939548Y271846D01*
X937599Y269897D01*
X937599Y265999D01*
X939548Y264050D01*
X945395Y264050D01*
X941497Y264050D02*
X937599Y260152D01*
X933701Y258203D02*
X925905Y258203D01*
X914211Y269897D02*
X916160Y271846D01*
X920058Y271846D01*
X922007Y269897D01*
X922007Y267948D01*
X920058Y265999D01*
X916160Y265999D01*
X914211Y264050D01*
X914211Y262101D01*
X916160Y260152D01*
X920058Y260152D01*
X922007Y262101D01*
X910313Y260152D02*
X910313Y271846D01*
X906415Y264050D02*
X910313Y260152D01*
X906415Y264050D02*
X902517Y260152D01*
X902517Y271846D01*
X898619Y271846D02*
X890823Y271846D01*
X898619Y271846D02*
X898619Y265999D01*
X894721Y267948D01*
X892772Y267948D01*
X890823Y265999D01*
X890823Y262101D01*
X892772Y260152D01*
X896670Y260152D01*
X898619Y262101D01*
X796556Y468124D02*
X796556Y479818D01*
X790709Y479818D01*
X788760Y477869D01*
X788760Y473971D01*
X790709Y472022D01*
X796556Y472022D01*
X792658Y472022D02*
X788760Y468124D01*
X784862Y466175D02*
X777066Y466175D01*
X765372Y477869D02*
X767321Y479818D01*
X771219Y479818D01*
X773168Y477869D01*
X773168Y475920D01*
X771219Y473971D01*
X767321Y473971D01*
X765372Y472022D01*
X765372Y470073D01*
X767321Y468124D01*
X771219Y468124D01*
X773168Y470073D01*
X761474Y468124D02*
X761474Y479818D01*
X757576Y472022D02*
X761474Y468124D01*
X757576Y472022D02*
X753678Y468124D01*
X753678Y479818D01*
X745882Y477869D02*
X741984Y479818D01*
X745882Y477869D02*
X749780Y473971D01*
X749780Y470073D01*
X747831Y468124D01*
X743933Y468124D01*
X741984Y470073D01*
X741984Y472022D01*
X743933Y473971D01*
X749780Y473971D01*
D11*
X543052Y680212D02*
X289052Y680212D01*
X543052Y680212D02*
X543052Y629412D01*
X289052Y629412D01*
X289052Y680212D01*
D12*
X272923Y654560D02*
X274491Y652993D01*
X272923Y654560D02*
X272923Y656128D01*
X274491Y657696D01*
X282329Y657696D01*
X282329Y659263D02*
X282329Y656128D01*
X279194Y662348D02*
X282329Y665483D01*
X272923Y665483D01*
X272923Y662348D02*
X272923Y668619D01*
X272923Y629160D02*
X274491Y627593D01*
X272923Y629160D02*
X272923Y630728D01*
X274491Y632296D01*
X282329Y632296D01*
X282329Y633863D02*
X282329Y630728D01*
X280761Y636948D02*
X282329Y638515D01*
X282329Y641651D01*
X280761Y643219D01*
X279194Y643219D01*
X277626Y641651D01*
X277626Y640083D01*
X277626Y641651D02*
X276058Y643219D01*
X274491Y643219D01*
X272923Y641651D01*
X272923Y638515D01*
X274491Y636948D01*
D11*
X289052Y248412D02*
X543052Y248412D01*
X543052Y197612D01*
X289052Y197612D01*
X289052Y248412D01*
D12*
X272923Y222760D02*
X274491Y221193D01*
X272923Y222760D02*
X272923Y224328D01*
X274491Y225896D01*
X282329Y225896D01*
X282329Y227463D02*
X282329Y224328D01*
X282329Y235251D02*
X272923Y235251D01*
X277626Y230548D02*
X282329Y235251D01*
X277626Y236819D02*
X277626Y230548D01*
X272923Y197360D02*
X274491Y195793D01*
X272923Y197360D02*
X272923Y198928D01*
X274491Y200496D01*
X282329Y200496D01*
X282329Y202063D02*
X282329Y198928D01*
X272923Y205148D02*
X272923Y211419D01*
X272923Y205148D02*
X279194Y211419D01*
X280761Y211419D01*
X282329Y209851D01*
X282329Y206715D01*
X280761Y205148D01*
D11*
X-1588Y692912D02*
X660352Y692912D01*
X660352Y184912D01*
X-1588Y184912D01*
X-1588Y692912D01*
D10*
X-16246Y645638D02*
X-25991Y645638D01*
X-27940Y647587D01*
X-27940Y651485D01*
X-25991Y653434D01*
X-16246Y653434D01*
X-25991Y657332D02*
X-27940Y659281D01*
X-27940Y663179D01*
X-25991Y665128D01*
X-24042Y665128D01*
X-22093Y663179D01*
X-22093Y659281D01*
X-20144Y657332D01*
X-18195Y657332D01*
X-16246Y659281D01*
X-16246Y663179D01*
X-18195Y665128D01*
X-14297Y661230D02*
X-29889Y661230D01*
X-20144Y669026D02*
X-16246Y672924D01*
X-27940Y672924D01*
X-27940Y669026D02*
X-27940Y676822D01*
X670560Y629040D02*
X682254Y629040D01*
X682254Y625142D02*
X682254Y632938D01*
X670560Y636836D02*
X670560Y640734D01*
X670560Y638785D02*
X682254Y638785D01*
X682254Y636836D02*
X682254Y640734D01*
X682254Y644632D02*
X674458Y644632D01*
X670560Y648530D01*
X674458Y652428D01*
X682254Y652428D01*
X678356Y656326D02*
X670560Y656326D01*
X678356Y656326D02*
X682254Y660224D01*
X678356Y664122D01*
X670560Y664122D01*
X676407Y664122D02*
X676407Y656326D01*
D12*
X704618Y767491D02*
X703050Y769059D01*
X704618Y767491D02*
X704618Y764356D01*
X703050Y762788D01*
X696780Y762788D01*
X695212Y764356D01*
X695212Y767491D01*
X696780Y769059D01*
X699915Y769059D01*
X699915Y765923D01*
X695212Y772143D02*
X704618Y772143D01*
X695212Y778414D01*
X704618Y778414D01*
X704618Y781498D02*
X695212Y781498D01*
X695212Y786201D01*
X696780Y787769D01*
X703050Y787769D01*
X704618Y786201D01*
X704618Y781498D01*
X723747Y762788D02*
X730018Y762788D01*
X723747Y762788D02*
X720612Y765923D01*
X723747Y769059D01*
X730018Y769059D01*
X730018Y776846D02*
X728450Y778414D01*
X730018Y776846D02*
X730018Y773711D01*
X728450Y772143D01*
X722180Y772143D01*
X720612Y773711D01*
X720612Y776846D01*
X722180Y778414D01*
X730018Y786201D02*
X728450Y787769D01*
X730018Y786201D02*
X730018Y783066D01*
X728450Y781498D01*
X722180Y781498D01*
X720612Y783066D01*
X720612Y786201D01*
X722180Y787769D01*
X753850Y778414D02*
X755418Y776846D01*
X755418Y773711D01*
X753850Y772143D01*
X747580Y772143D01*
X746012Y773711D01*
X746012Y776846D01*
X747580Y778414D01*
X755418Y786201D02*
X753850Y787769D01*
X755418Y786201D02*
X755418Y783066D01*
X753850Y781498D01*
X752283Y781498D01*
X750715Y783066D01*
X750715Y786201D01*
X749147Y787769D01*
X747580Y787769D01*
X746012Y786201D01*
X746012Y783066D01*
X747580Y781498D01*
X771412Y759687D02*
X771412Y756551D01*
X771412Y758119D02*
X780818Y758119D01*
X780818Y756551D02*
X780818Y759687D01*
X780818Y762788D02*
X771412Y762788D01*
X771412Y769059D02*
X780818Y762788D01*
X780818Y769059D02*
X771412Y769059D01*
X771412Y775279D02*
X780818Y775279D01*
X780818Y778414D02*
X780818Y772143D01*
X777683Y781498D02*
X780818Y784634D01*
X771412Y784634D01*
X771412Y787769D02*
X771412Y781498D01*
X796812Y759687D02*
X796812Y756551D01*
X796812Y758119D02*
X806218Y758119D01*
X806218Y756551D02*
X806218Y759687D01*
X806218Y762788D02*
X796812Y762788D01*
X796812Y769059D02*
X806218Y762788D01*
X806218Y769059D02*
X796812Y769059D01*
X796812Y775279D02*
X806218Y775279D01*
X806218Y778414D02*
X806218Y772143D01*
X796812Y781498D02*
X796812Y787769D01*
X796812Y781498D02*
X803083Y787769D01*
X804650Y787769D01*
X806218Y786201D01*
X806218Y783066D01*
X804650Y781498D01*
X830050Y769059D02*
X831618Y767491D01*
X831618Y764356D01*
X830050Y762788D01*
X828483Y762788D01*
X826915Y764356D01*
X826915Y767491D01*
X825347Y769059D01*
X823780Y769059D01*
X822212Y767491D01*
X822212Y764356D01*
X823780Y762788D01*
X822212Y772143D02*
X831618Y772143D01*
X822212Y772143D02*
X822212Y776846D01*
X823780Y778414D01*
X830050Y778414D01*
X831618Y776846D01*
X831618Y772143D01*
X830050Y781498D02*
X823780Y781498D01*
X830050Y781498D02*
X831618Y783066D01*
X831618Y786201D01*
X830050Y787769D01*
X823780Y787769D01*
X822212Y786201D01*
X822212Y783066D01*
X823780Y781498D01*
X830050Y787769D01*
X855450Y769059D02*
X857018Y767491D01*
X857018Y764356D01*
X855450Y762788D01*
X853883Y762788D01*
X852315Y764356D01*
X852315Y767491D01*
X850747Y769059D01*
X849180Y769059D01*
X847612Y767491D01*
X847612Y764356D01*
X849180Y762788D01*
X847612Y772143D02*
X857018Y772143D01*
X847612Y772143D02*
X847612Y776846D01*
X849180Y778414D01*
X855450Y778414D01*
X857018Y776846D01*
X857018Y772143D01*
X853883Y781498D02*
X847612Y781498D01*
X853883Y781498D02*
X857018Y784634D01*
X853883Y787769D01*
X847612Y787769D01*
X852315Y787769D02*
X852315Y781498D01*
X880850Y769059D02*
X882418Y767491D01*
X882418Y764356D01*
X880850Y762788D01*
X879283Y762788D01*
X877715Y764356D01*
X877715Y767491D01*
X876147Y769059D01*
X874580Y769059D01*
X873012Y767491D01*
X873012Y764356D01*
X874580Y762788D01*
X882418Y776846D02*
X880850Y778414D01*
X882418Y776846D02*
X882418Y773711D01*
X880850Y772143D01*
X874580Y772143D01*
X873012Y773711D01*
X873012Y776846D01*
X874580Y778414D01*
X873012Y781498D02*
X882418Y781498D01*
X873012Y781498D02*
X873012Y787769D01*
D11*
X692291Y815873D02*
X692291Y638073D01*
X895491Y638073D01*
X895491Y815873D01*
X692291Y815873D01*
X3027Y619119D02*
X3027Y392731D01*
X408935Y392731D01*
X409552Y616579D01*
X409306Y617948D02*
X1623Y617948D01*
D10*
X349577Y570441D02*
X351526Y572390D01*
X355424Y572390D01*
X357373Y570441D01*
X357373Y562645D01*
X355424Y560696D01*
X351526Y560696D01*
X349577Y562645D01*
X339832Y572390D02*
X337883Y570441D01*
X339832Y572390D02*
X343730Y572390D01*
X345679Y570441D01*
X345679Y568492D01*
X343730Y566543D01*
X339832Y566543D01*
X337883Y564594D01*
X337883Y562645D01*
X339832Y560696D01*
X343730Y560696D01*
X345679Y562645D01*
X352387Y548644D02*
X350438Y546695D01*
X352387Y548644D02*
X356285Y548644D01*
X358234Y546695D01*
X358234Y544746D01*
X356285Y542797D01*
X352387Y542797D01*
X350438Y540848D01*
X350438Y538899D01*
X352387Y536950D01*
X356285Y536950D01*
X358234Y538899D01*
X340693Y548644D02*
X338744Y546695D01*
X340693Y548644D02*
X344591Y548644D01*
X346540Y546695D01*
X346540Y538899D01*
X344591Y536950D01*
X340693Y536950D01*
X338744Y538899D01*
X334846Y536950D02*
X334846Y548644D01*
X334846Y540848D02*
X327050Y548644D01*
X332897Y542797D02*
X327050Y536950D01*
X359527Y521875D02*
X359527Y510181D01*
X355629Y517977D02*
X359527Y521875D01*
X355629Y517977D02*
X351731Y521875D01*
X351731Y510181D01*
X345884Y521875D02*
X341986Y521875D01*
X345884Y521875D02*
X347833Y519926D01*
X347833Y512130D01*
X345884Y510181D01*
X341986Y510181D01*
X340037Y512130D01*
X340037Y519926D01*
X341986Y521875D01*
X330292Y521875D02*
X328343Y519926D01*
X330292Y521875D02*
X334190Y521875D01*
X336139Y519926D01*
X336139Y517977D01*
X334190Y516028D01*
X330292Y516028D01*
X328343Y514079D01*
X328343Y512130D01*
X330292Y510181D01*
X334190Y510181D01*
X336139Y512130D01*
X324445Y510181D02*
X320547Y510181D01*
X322496Y510181D02*
X322496Y521875D01*
X324445Y521875D02*
X320547Y521875D01*
X360388Y496835D02*
X360388Y485142D01*
X356490Y492937D02*
X360388Y496835D01*
X356490Y492937D02*
X352592Y496835D01*
X352592Y485142D01*
X348694Y485142D02*
X344796Y485142D01*
X346745Y485142D02*
X346745Y496835D01*
X348694Y496835D02*
X344796Y496835D01*
X335051Y496835D02*
X333102Y494886D01*
X335051Y496835D02*
X338949Y496835D01*
X340898Y494886D01*
X340898Y492937D01*
X338949Y490988D01*
X335051Y490988D01*
X333102Y489039D01*
X333102Y487090D01*
X335051Y485142D01*
X338949Y485142D01*
X340898Y487090D01*
X327255Y496835D02*
X323357Y496835D01*
X327255Y496835D02*
X329204Y494886D01*
X329204Y487090D01*
X327255Y485142D01*
X323357Y485142D01*
X321408Y487090D01*
X321408Y494886D01*
X323357Y496835D01*
X360817Y471794D02*
X360817Y463998D01*
X356919Y460100D01*
X353021Y463998D01*
X353021Y471794D01*
X343276Y471794D02*
X341327Y469845D01*
X343276Y471794D02*
X347174Y471794D01*
X349123Y469845D01*
X349123Y462049D01*
X347174Y460100D01*
X343276Y460100D01*
X341327Y462049D01*
X331582Y471794D02*
X329633Y469845D01*
X331582Y471794D02*
X335480Y471794D01*
X337429Y469845D01*
X337429Y462049D01*
X335480Y460100D01*
X331582Y460100D01*
X329633Y462049D01*
X352592Y443939D02*
X354541Y445888D01*
X358439Y445888D01*
X360388Y443939D01*
X360388Y436143D01*
X358439Y434194D01*
X354541Y434194D01*
X352592Y436143D01*
X352592Y440041D01*
X356490Y440041D01*
X348694Y434194D02*
X348694Y445888D01*
X340898Y434194D01*
X340898Y445888D01*
X337000Y445888D02*
X337000Y434194D01*
X331153Y434194D01*
X329204Y436143D01*
X329204Y443939D01*
X331153Y445888D01*
X337000Y445888D01*
X796556Y271846D02*
X796556Y260152D01*
X796556Y271846D02*
X790709Y271846D01*
X788760Y269897D01*
X788760Y265999D01*
X790709Y264050D01*
X796556Y264050D01*
X792658Y264050D02*
X788760Y260152D01*
X784862Y258203D02*
X777066Y258203D01*
X765372Y269897D02*
X767321Y271846D01*
X771219Y271846D01*
X773168Y269897D01*
X773168Y267948D01*
X771219Y265999D01*
X767321Y265999D01*
X765372Y264050D01*
X765372Y262101D01*
X767321Y260152D01*
X771219Y260152D01*
X773168Y262101D01*
X761474Y260152D02*
X761474Y271846D01*
X757576Y264050D02*
X761474Y260152D01*
X757576Y264050D02*
X753678Y260152D01*
X753678Y271846D01*
X749780Y269897D02*
X747831Y271846D01*
X743933Y271846D01*
X741984Y269897D01*
X741984Y267948D01*
X743933Y265999D01*
X741984Y264050D01*
X741984Y262101D01*
X743933Y260152D01*
X747831Y260152D01*
X749780Y262101D01*
X749780Y264050D01*
X747831Y265999D01*
X749780Y267948D01*
X749780Y269897D01*
X747831Y265999D02*
X743933Y265999D01*
D11*
X462510Y284202D02*
X462510Y408202D01*
X586510Y408202D01*
X586510Y284202D01*
X462510Y284202D01*
D10*
X555018Y311710D02*
X566712Y311710D01*
X566712Y317557D01*
X564763Y319506D01*
X562814Y319506D01*
X560865Y317557D01*
X558916Y319506D01*
X556967Y319506D01*
X555018Y317557D01*
X555018Y311710D01*
X560865Y311710D02*
X560865Y317557D01*
X556967Y323404D02*
X566712Y323404D01*
X556967Y323404D02*
X555018Y325353D01*
X555018Y329251D01*
X556967Y331200D01*
X566712Y331200D01*
X566712Y335098D02*
X566712Y342894D01*
X564763Y342894D01*
X556967Y335098D01*
X555018Y335098D01*
X555018Y342894D01*
X566712Y346792D02*
X566712Y354588D01*
X564763Y354588D01*
X556967Y346792D01*
X555018Y346792D01*
X555018Y354588D01*
X566712Y358486D02*
X566712Y366282D01*
X566712Y358486D02*
X555018Y358486D01*
X555018Y366282D01*
X560865Y362384D02*
X560865Y358486D01*
X555018Y370180D02*
X566712Y370180D01*
X566712Y376027D01*
X564763Y377976D01*
X560865Y377976D01*
X558916Y376027D01*
X558916Y370180D01*
X558916Y374078D02*
X555018Y377976D01*
X376692Y253940D02*
X364998Y253940D01*
X376692Y253940D02*
X376692Y259787D01*
X374743Y261736D01*
X370845Y261736D01*
X368896Y259787D01*
X368896Y253940D01*
X368896Y257838D02*
X364998Y261736D01*
X363049Y265634D02*
X363049Y273430D01*
X364998Y277328D02*
X376692Y277328D01*
X376692Y283175D01*
X374743Y285124D01*
X372794Y285124D01*
X370845Y283175D01*
X368896Y285124D01*
X366947Y285124D01*
X364998Y283175D01*
X364998Y277328D01*
X370845Y277328D02*
X370845Y283175D01*
X366947Y289022D02*
X376692Y289022D01*
X366947Y289022D02*
X364998Y290971D01*
X364998Y294869D01*
X366947Y296818D01*
X376692Y296818D01*
X376692Y300716D02*
X376692Y308512D01*
X374743Y308512D01*
X366947Y300716D01*
X364998Y300716D01*
X364998Y308512D01*
X376692Y312410D02*
X376692Y320206D01*
X374743Y320206D01*
X366947Y312410D01*
X364998Y312410D01*
X364998Y320206D01*
M02*
